<?xml version="1.0" encoding="UTF-8"?>
<!DOCTYPE svg PUBLIC "-//W3C//DTD SVG 1.1//EN" "http://www.w3.org/Graphics/SVG/1.1/DTD/svg11.dtd">
<!-- Creator: CorelDRAW X7 -->
<svg xmlns="http://www.w3.org/2000/svg" xml:space="preserve" width="54.8448mm" height="34.3092mm" version="1.1" style="shape-rendering:geometricPrecision; text-rendering:geometricPrecision; image-rendering:optimizeQuality; fill-rule:evenodd; clip-rule:evenodd"
viewBox="0 0 1613 1009"
 xmlns:xlink="http://www.w3.org/1999/xlink">
 <defs>
  <style type="text/css">
   <![CDATA[
    .str1 {stroke:#BA3438;stroke-width:24.898}
    .str0 {stroke:#204C35;stroke-width:24.898}
    .str2 {stroke:#FEFEFE;stroke-width:4.97842}
    .fil3 {fill:none}
    .fil6 {fill:#FEFEFE}
    .fil1 {fill:#C33E38}
    .fil0 {fill:#A23335}
    .fil2 {fill:#204C35;fill-rule:nonzero}
    .fil4 {fill:url(#id0)}
    .fil5 {fill:url(#id1)}
   ]]>
  </style>
  <radialGradient id="id0" gradientUnits="userSpaceOnUse" gradientTransform="matrix(0.766659 -2.12422 2.12421 0.766659 -484 1676)" cx="754.9" cy="310.741" r="180.664" fx="754.9" fy="310.741">
   <stop offset="0" style="stop-opacity:1; stop-color:#D77039"/>
   <stop offset="1" style="stop-opacity:1; stop-color:#CF844A"/>
  </radialGradient>
  <radialGradient id="id1" gradientUnits="userSpaceOnUse" gradientTransform="matrix(0.766652 -2.1242 2.12419 0.766652 -427 1696)" cx="766.989" cy="285.143" r="145.109" fx="766.989" fy="285.143">
   <stop offset="0" style="stop-opacity:1; stop-color:#F79433"/>
   <stop offset="1" style="stop-opacity:1; stop-color:#CF844A"/>
  </radialGradient>
 </defs>
 <g id="Camada_x0020_1">
  <metadata id="CorelCorpID_0Corel-Layer"/>
  <g id="_1713927691392">
   <path class="fil0" d="M1456 573c-5,-19 -9,-38 -14,-57 -4,-19 -8,-38 -13,-57 -4,18 -7,36 -11,54 -4,19 -8,37 -11,55 16,2 32,3 49,5zm136 163c-43,-4 -85,-8 -128,-13 0,-4 0,-8 0,-12 8,1 13,0 15,-3 0,0 1,-3 3,-9 2,-4 -1,-16 -5,-36 -6,-26 -11,-51 -17,-77 -18,-1 -37,-3 -55,-5 -6,26 -11,53 -16,79 -3,17 -5,28 -5,31 0,9 11,14 31,16 0,4 0,8 0,12 -23,-2 -47,-4 -71,-6 0,-4 0,-8 0,-12 15,1 24,-10 29,-34 10,-51 19,-102 29,-153 9,-50 19,-101 28,-151 19,-6 38,-13 57,-18 14,59 28,118 42,177 14,59 28,118 42,176 4,16 11,25 21,26 0,4 0,8 0,12z"/>
   <path class="fil0" d="M1338 715c-36,-2 -72,-5 -108,-7 0,-4 0,-7 0,-11 2,0 4,0 6,0 4,0 8,-1 11,-4 4,-3 5,-8 5,-13 0,-38 0,-76 0,-114 0,-39 0,-77 0,-115 0,-11 -5,-18 -15,-18 -2,-1 -5,-1 -7,-1 0,-4 0,-8 0,-12 36,3 72,6 108,10 0,4 0,7 0,11 -3,0 -6,0 -8,0 -10,-1 -15,4 -15,16 0,38 0,75 0,113 0,38 0,76 0,114 0,12 5,19 15,19 3,0 5,1 8,1 0,4 0,7 0,11z"/>
   <path class="fil0" d="M1127 483c0,-16 -2,-30 -6,-41 -4,-13 -9,-19 -16,-19 -6,0 -9,5 -9,16 0,18 0,36 0,54 0,17 0,35 0,53 10,-1 17,-8 23,-21 6,-12 8,-26 8,-42zm78 223c-23,-1 -46,-2 -69,-3 -7,-19 -14,-38 -20,-57 -7,-19 -13,-38 -20,-57 0,14 0,28 0,42 0,13 0,27 0,41 0,12 7,18 21,18 0,4 0,8 0,12 -33,-1 -66,-2 -100,-3 0,-4 0,-8 0,-12 12,1 18,-6 18,-19 0,-39 0,-77 0,-115 0,-38 0,-77 0,-115 0,-7 -1,-12 -4,-15 -2,-2 -7,-4 -14,-4 0,-4 0,-8 0,-12 28,1 55,2 83,4 30,1 52,9 67,22 15,14 23,33 23,58 0,33 -16,55 -49,65 7,20 15,40 22,60 7,20 15,40 23,60 4,12 10,18 19,18 0,4 0,8 0,12z"/>
   <path class="fil0" d="M1006 612c-3,14 -6,29 -9,43 -3,15 -6,30 -9,44 -54,-1 -107,-1 -161,-1 0,-4 0,-8 0,-12 11,0 17,-7 17,-21 0,-38 0,-76 0,-114 0,-38 0,-76 0,-114 0,-8 -1,-13 -3,-17 -2,-3 -7,-4 -14,-4 0,-4 0,-9 0,-13 53,1 105,1 158,3 2,14 5,28 7,42 2,14 4,28 6,42 -4,1 -8,1 -13,2 -10,-24 -19,-41 -25,-50 -12,-17 -25,-25 -40,-26 -9,0 -14,7 -14,21 0,17 0,33 0,49 0,16 0,33 0,49 4,0 7,0 10,0 8,0 15,-3 21,-10 8,-9 12,-22 12,-41 5,0 11,0 17,1 0,19 0,38 0,57 0,20 0,39 0,58 -6,0 -12,0 -18,0 0,-19 -4,-33 -12,-43 -5,-7 -12,-10 -20,-10 -4,0 -7,0 -10,0 0,19 0,39 0,59 0,20 0,40 0,59 0,14 5,21 15,21 3,0 7,1 10,1 10,0 20,-7 30,-19 10,-13 20,-33 31,-59 5,1 10,2 14,3z"/>
   <path class="fil0" d="M810 404c-17,47 -34,94 -51,141 -17,47 -34,94 -51,142 3,-1 6,-1 10,-1 15,0 29,-8 41,-23 12,-15 21,-35 27,-60 4,0 9,0 14,0 -2,16 -4,31 -6,47 -1,16 -3,32 -5,48 -52,0 -104,1 -156,2 18,-47 35,-94 53,-142 18,-47 35,-94 53,-141 -1,0 -3,0 -4,0 -15,0 -30,8 -43,23 -14,15 -23,34 -28,56 -5,0 -9,0 -14,0 2,-15 3,-30 5,-45 1,-14 3,-29 4,-44 50,-2 101,-2 151,-3z"/>
   <path class="fil0" d="M616 408c-17,48 -34,95 -51,142 -17,48 -34,95 -51,142 3,0 7,0 10,0 15,-1 29,-9 41,-24 12,-16 21,-36 27,-61 4,0 9,0 14,-1 -2,16 -4,32 -6,48 -1,16 -3,31 -5,47 -52,2 -104,4 -156,7 18,-48 35,-95 53,-142 18,-48 35,-95 53,-143 -1,0 -3,0 -4,0 -15,1 -29,9 -43,25 -14,16 -23,34 -28,56 -5,0 -9,0 -14,1 2,-15 3,-30 5,-45 1,-14 3,-29 4,-44 50,-3 101,-6 151,-8z"/>
   <path class="fil0" d="M416 710c-36,2 -72,4 -108,7 0,-4 0,-8 0,-11 2,-1 4,-1 6,-1 4,0 8,-2 12,-6 3,-3 5,-8 5,-13 0,-38 0,-76 0,-114 0,-38 0,-76 0,-114 0,-12 -5,-17 -16,-16 -2,0 -5,0 -7,0 0,-4 0,-8 0,-11 36,-4 72,-7 108,-10 0,4 0,8 0,12 -3,0 -5,0 -8,1 -10,0 -15,7 -15,18 0,39 0,77 0,115 0,38 0,76 0,115 0,12 6,18 16,17 2,0 5,0 7,0 0,3 0,7 0,11z"/>
   <path class="fil0" d="M202 443c0,-32 -2,-58 -9,-76 -5,-16 -11,-23 -17,-23 -8,1 -12,10 -12,27 0,26 0,52 0,79 0,26 0,53 0,79 26,-6 38,-34 38,-86zm90 -13c0,39 -12,67 -37,85 -19,15 -49,25 -91,29 0,24 0,47 0,71 0,24 0,48 0,71 0,11 2,17 7,20 3,2 10,2 21,1 0,6 0,11 0,16 -47,4 -95,8 -142,13 0,-5 0,-11 0,-16 18,-1 27,-12 27,-31 0,-51 0,-103 0,-154 0,-51 0,-103 0,-154 0,-12 -3,-19 -11,-21 -3,-1 -9,-1 -16,0 0,-5 0,-10 0,-15 41,-5 82,-11 124,-16 39,-5 68,2 88,19 19,17 30,44 30,82z"/>
  </g>
  <g id="_1713927693920">
   <path class="fil1" d="M1451 570c-4,-19 -9,-38 -13,-57 -4,-19 -9,-38 -13,-57 -4,18 -8,36 -12,54 -3,18 -7,37 -11,55 16,1 33,3 49,5zm136 163c-42,-4 -85,-9 -127,-13 0,-4 0,-8 0,-12 7,1 12,0 14,-3 0,0 2,-3 4,-9 1,-5 -1,-17 -6,-36 -5,-26 -11,-51 -16,-77 -19,-1 -37,-3 -56,-5 -5,26 -10,52 -15,79 -4,17 -5,27 -5,31 0,9 10,14 31,16 0,4 0,8 0,12 -24,-2 -48,-4 -71,-6 0,-4 0,-8 0,-12 14,1 23,-10 28,-35 10,-50 19,-101 29,-152 10,-50 19,-101 29,-151 19,-7 38,-13 57,-19 14,60 28,119 42,178 13,59 28,117 42,176 4,16 10,25 20,26 0,4 0,8 0,12z"/>
   <path class="fil1" d="M1333 712c-36,-3 -72,-5 -108,-7 0,-4 0,-8 0,-11 2,0 4,0 6,0 4,0 8,-1 12,-4 3,-4 5,-8 5,-13 0,-39 0,-77 0,-115 0,-38 0,-76 0,-114 0,-12 -5,-18 -15,-19 -3,0 -5,0 -8,0 0,-4 0,-8 0,-12 36,3 72,6 108,9 0,4 0,8 0,12 -2,0 -5,0 -8,-1 -10,-1 -14,5 -14,16 0,38 0,76 0,114 0,38 0,76 0,114 0,12 5,18 15,19 2,0 5,0 7,1 0,3 0,7 0,11z"/>
   <path class="fil1" d="M1123 480c0,-16 -2,-30 -6,-41 -4,-13 -10,-19 -17,-19 -5,-1 -8,5 -8,16 0,18 0,36 0,53 0,18 0,36 0,54 9,-1 17,-8 23,-21 5,-12 8,-26 8,-42zm78 223c-23,-1 -47,-2 -70,-3 -7,-19 -13,-38 -20,-57 -6,-19 -13,-38 -19,-57 0,14 0,27 0,41 0,14 0,28 0,42 0,12 7,18 20,18 0,4 0,8 0,12 -33,-1 -66,-2 -99,-3 0,-4 0,-8 0,-12 12,0 18,-6 18,-20 0,-38 0,-76 0,-114 0,-39 0,-77 0,-115 0,-7 -1,-12 -4,-15 -3,-3 -7,-4 -14,-4 0,-4 0,-8 0,-12 27,1 55,2 82,4 30,1 53,9 68,22 15,13 23,32 23,57 0,34 -17,56 -50,66 8,20 15,40 23,60 7,20 15,40 22,59 4,12 11,19 20,19 0,4 0,8 0,12z"/>
   <path class="fil1" d="M1002 609c-3,14 -6,29 -9,43 -4,15 -7,29 -10,44 -53,-1 -107,-1 -161,-2 0,-3 0,-7 0,-11 12,0 18,-7 18,-21 0,-38 0,-76 0,-114 0,-38 0,-76 0,-114 0,-8 -1,-14 -4,-17 -1,-3 -6,-5 -14,-5 0,-4 0,-8 0,-12 53,0 106,1 159,2 2,15 4,29 6,43 2,14 5,28 7,42 -5,0 -9,1 -13,1 -11,-24 -19,-40 -26,-49 -12,-17 -25,-26 -40,-26 -9,0 -13,7 -13,21 0,16 0,33 0,49 0,16 0,32 0,49 3,0 6,0 9,0 9,0 16,-3 22,-10 7,-9 11,-22 11,-41 6,0 12,0 18,0 0,20 0,39 0,58 0,20 0,39 0,58 -7,0 -13,0 -19,0 0,-20 -4,-34 -11,-43 -6,-7 -13,-11 -21,-11 -3,0 -6,0 -9,0 0,20 0,40 0,60 0,19 0,39 0,59 0,14 5,21 14,21 4,0 7,0 11,0 9,1 19,-6 29,-19 10,-13 21,-32 31,-58 5,1 10,2 15,3z"/>
   <path class="fil1" d="M806 401c-17,47 -34,94 -51,141 -17,47 -34,94 -51,141 3,0 6,0 9,0 15,0 29,-8 41,-23 12,-15 21,-36 27,-60 5,0 10,0 14,-1 -1,16 -3,32 -5,48 -2,16 -4,31 -6,47 -52,1 -103,2 -155,3 17,-47 35,-95 52,-142 18,-47 36,-94 53,-141 -1,0 -2,0 -3,0 -15,0 -30,8 -44,23 -13,15 -23,34 -28,55 -4,0 -9,1 -13,1 1,-15 3,-30 4,-45 2,-15 3,-30 5,-44 50,-2 100,-3 151,-3z"/>
   <path class="fil1" d="M612 405c-17,47 -34,95 -51,142 -17,47 -34,95 -51,142 3,0 6,0 9,0 15,-1 29,-9 41,-24 12,-16 21,-36 27,-61 5,0 10,-1 14,-1 -1,16 -3,32 -5,48 -2,15 -4,31 -6,47 -51,2 -103,4 -155,6 17,-47 35,-94 53,-142 17,-47 35,-95 53,-142 -2,0 -3,0 -4,0 -15,1 -30,9 -43,25 -14,15 -24,34 -29,56 -4,0 -9,0 -13,0 1,-14 3,-29 4,-44 2,-15 3,-30 5,-44 50,-3 100,-6 151,-8z"/>
   <path class="fil1" d="M412 707c-36,2 -73,4 -109,7 0,-4 0,-8 0,-12 2,0 4,0 6,0 5,0 9,-2 12,-6 4,-4 5,-8 5,-14 0,-38 0,-76 0,-114 0,-38 0,-76 0,-114 0,-11 -5,-17 -15,-16 -3,1 -5,1 -8,1 0,-4 0,-8 0,-12 36,-3 73,-6 109,-9 0,4 0,8 0,12 -3,0 -6,0 -9,0 -9,1 -14,7 -14,19 0,38 0,77 0,115 0,38 0,76 0,114 0,13 5,18 15,18 3,0 5,0 8,-1 0,4 0,8 0,12z"/>
   <path class="fil1" d="M198 439c0,-32 -3,-57 -9,-76 -6,-15 -12,-23 -18,-22 -7,1 -11,10 -11,26 0,27 0,53 0,80 0,26 0,52 0,79 25,-6 38,-35 38,-87zm89 -12c0,38 -12,67 -36,85 -20,15 -50,25 -91,29 0,24 0,47 0,71 0,24 0,47 0,71 0,11 2,17 7,20 3,2 10,2 21,1 0,5 0,11 0,16 -48,4 -95,8 -142,12 0,-5 0,-10 0,-15 17,-2 27,-12 27,-31 0,-51 0,-103 0,-154 0,-52 0,-103 0,-155 0,-12 -4,-18 -11,-20 -4,-1 -9,-1 -16,0 0,-5 0,-10 0,-15 41,-6 82,-11 123,-16 39,-5 69,2 88,19 20,16 30,44 30,82z"/>
  </g>
  <path class="fil2" d="M101 845c0,26 0,53 0,79 0,26 0,53 0,79 -7,1 -15,2 -23,2 0,-26 0,-53 0,-79 0,-27 0,-53 0,-80 8,0 16,-1 23,-1zm47 -4c0,3 0,6 0,8 -39,3 -78,5 -117,8 0,-3 0,-6 0,-9 39,-2 78,-5 117,-7zm0 8c0,8 0,16 0,23 0,0 -1,0 -1,0 0,-1 0,-2 0,-3 0,-5 -2,-10 -5,-14 -3,-3 -7,-5 -12,-5 0,0 0,0 0,0 6,-1 12,-1 18,-1zm0 -12c0,2 0,4 0,6 -7,0 -15,0 -23,-1 3,0 6,0 9,-1 3,-1 6,-1 9,-2 3,-1 4,-2 5,-2zm-69 152c0,5 0,11 0,16 -5,1 -10,1 -15,2 0,-1 0,-2 0,-2 0,0 0,-1 1,-1 1,0 1,0 1,0 3,0 6,-2 9,-5 2,-3 3,-6 3,-10 0,0 0,0 1,0zm22 -2c0,0 0,0 0,0 0,4 2,7 4,9 2,3 5,4 8,4 0,0 1,0 2,0 1,0 1,0 1,0 0,0 0,1 0,2 -5,0 -10,1 -15,1 0,-5 0,-11 0,-16zm-52 -132c0,0 0,1 0,1 -5,0 -9,3 -12,6 -3,4 -4,9 -4,15 0,1 0,2 0,3 -1,0 -1,0 -2,1 0,-8 0,-17 0,-25 6,0 12,0 18,-1zm-18 -11c1,1 3,1 6,2 2,0 5,0 8,1 3,0 6,0 9,0 -8,1 -15,3 -23,4 0,-2 0,-5 0,-7zm172 -6c9,0 17,-1 25,-1 6,-1 12,0 17,1 5,2 9,4 13,7 4,3 7,8 10,13 2,5 3,11 3,18 0,7 -1,13 -4,20 -2,6 -6,12 -10,16 -5,5 -11,8 -18,9 4,1 7,3 10,6 3,4 6,7 8,11 0,0 1,1 2,4 2,2 3,5 6,9 2,3 4,7 6,11 3,3 5,6 7,8 2,4 5,7 7,9 3,3 5,4 8,5 2,1 5,2 9,2 0,0 0,1 0,2 -5,0 -11,1 -16,1 -6,0 -12,0 -18,-1 -5,-2 -9,-4 -13,-7 -4,-3 -7,-7 -10,-11 -1,-2 -2,-4 -3,-6 -1,-3 -3,-6 -4,-9 -2,-4 -4,-7 -5,-10 -2,-3 -3,-6 -4,-8 -1,-3 -2,-4 -3,-5 -2,-5 -4,-8 -6,-10 -3,-3 -5,-4 -8,-4 0,-1 0,-2 0,-3 0,0 1,0 3,0 1,0 3,0 4,0 4,-1 7,-1 11,-3 3,-2 6,-4 9,-8 3,-4 5,-9 6,-16 0,-1 1,-3 1,-5 0,-2 0,-4 0,-6 0,-11 -3,-18 -7,-24 -4,-5 -9,-7 -16,-7 -2,0 -5,0 -7,0 -3,0 -5,1 -7,1 -2,0 -3,0 -4,0 0,0 0,-1 0,-3 -1,-1 -1,-2 -1,-4 -1,-1 -1,-2 -1,-2zm3 0c0,26 0,52 0,78 0,26 0,53 0,79 -8,0 -16,1 -23,2 0,-27 0,-53 0,-79 0,-26 0,-53 0,-79 7,0 15,-1 23,-1zm-23 142c0,6 0,11 0,16 -5,1 -10,1 -15,2 0,-1 0,-2 0,-3 0,0 0,0 1,0 1,0 1,0 1,0 4,0 7,-2 9,-5 2,-3 3,-6 4,-10 0,0 0,0 0,0zm0 -124c0,0 0,0 0,0 -1,-4 -2,-8 -4,-10 -2,-3 -5,-4 -9,-4 0,0 0,0 -1,0 -1,0 -1,0 -1,0 0,-1 0,-1 0,-2 5,0 10,-1 15,-1 0,6 0,11 0,17zm22 122c0,0 1,0 1,0 0,4 1,7 3,10 3,2 6,4 9,3 0,0 0,0 1,0 1,0 1,0 1,0 0,1 0,2 0,2 -5,1 -10,1 -15,2 0,-6 0,-11 0,-17zm162 -151c10,25 20,51 30,76 10,26 20,51 30,76 -9,1 -18,1 -28,2 -7,-20 -14,-40 -20,-59 -7,-20 -14,-40 -21,-60 3,-12 6,-24 9,-35zm-41 143c-1,3 -1,6 0,8 1,2 2,3 3,4 2,1 3,2 5,2 0,0 1,0 1,0 0,0 0,1 0,2 -13,0 -26,1 -39,2 0,0 0,-1 0,-2 0,0 0,0 0,0 1,0 1,0 1,0 3,0 6,-2 9,-4 3,-2 6,-6 8,-11 4,0 8,-1 12,-1zm41 -143c1,7 1,15 1,22 -8,23 -16,46 -23,69 -8,22 -16,45 -24,68 -4,0 -9,1 -13,1 8,-23 16,-45 24,-67 8,-22 17,-44 25,-66 0,-1 1,-2 2,-5 0,-2 1,-5 2,-8 1,-3 2,-5 3,-8 1,-3 1,-5 2,-6 0,0 1,0 1,0zm23 101c0,3 0,6 0,8 -20,1 -39,2 -58,3 0,-3 0,-5 0,-8 19,-1 38,-2 58,-3zm4 38c9,0 18,0 28,-1 2,5 4,8 7,10 3,2 6,3 9,3 0,0 1,0 1,0 1,0 1,0 1,0 0,1 0,1 0,2 -18,1 -37,2 -55,3 0,-1 0,-1 0,-2 1,0 1,0 2,0 2,0 5,-2 6,-4 2,-3 3,-6 1,-11zm125 -140c15,-1 27,2 38,8 11,6 19,14 25,25 6,12 8,25 8,40 0,16 -2,29 -8,40 -6,12 -14,21 -25,27 -11,7 -23,10 -38,11 -14,0 -29,1 -44,2 0,-3 0,-6 0,-9 3,0 6,0 9,0 4,0 8,0 11,0 4,-1 8,-1 11,-1 4,0 6,0 9,0 2,0 3,0 3,0 9,-1 18,-4 25,-10 7,-5 12,-13 16,-23 4,-11 6,-22 6,-36 0,-14 -2,-25 -6,-35 -4,-10 -9,-18 -16,-23 -7,-6 -16,-8 -25,-8 0,0 -1,0 -4,0 -2,0 -5,0 -8,0 -4,0 -8,0 -12,0 -4,1 -7,1 -11,1 -4,0 -7,0 -10,0 0,-3 0,-5 0,-8 16,-1 31,-1 46,-1zm-29 0c0,26 0,51 0,76 0,25 0,51 0,76 -8,0 -16,1 -24,1 0,-25 0,-51 0,-76 0,-25 0,-51 0,-76 8,0 16,0 24,-1zm-23 137c0,5 0,11 0,16 -5,0 -10,0 -15,1 0,-1 0,-2 0,-3 0,0 0,0 1,0 1,0 1,0 1,0 4,0 6,-1 9,-4 2,-3 3,-6 3,-10 1,0 1,0 1,0zm0 -120c0,0 0,0 -1,0 0,-4 -1,-7 -3,-10 -3,-2 -5,-3 -9,-3 0,0 0,0 -1,0 -1,0 -1,0 -1,0 0,-1 0,-2 0,-3 5,0 10,0 15,0 0,5 0,11 0,16zm182 -20c0,25 0,50 0,75 0,25 0,50 0,75 -8,0 -16,0 -23,0 0,-25 0,-50 0,-75 0,-25 0,-50 0,-75 7,0 15,0 23,0zm-23 135c0,5 0,10 0,15 -5,1 -10,1 -15,1 0,-1 0,-2 0,-2 0,0 0,0 1,0 1,0 1,0 1,0 4,-1 7,-2 9,-5 2,-2 3,-5 4,-9 0,0 0,0 0,0zm0 -119c0,0 0,0 0,0 -1,-4 -2,-7 -4,-9 -2,-3 -5,-4 -9,-4 0,0 0,0 -1,0 -1,0 -1,0 -1,0 0,-1 0,-2 0,-2 5,0 10,-1 15,-1 0,6 0,11 0,16zm22 118c0,0 1,0 1,0 0,4 1,7 4,10 2,2 5,4 8,4 0,0 0,0 1,0 1,0 1,0 1,0 0,0 0,1 0,2 -5,0 -10,0 -15,0 0,-5 0,-10 0,-16zm0 -118c0,-5 0,-11 0,-16 5,0 10,0 15,0 0,1 0,1 0,2 0,0 0,0 -1,0 -1,0 -1,0 -1,0 -3,0 -6,2 -8,4 -3,3 -4,6 -4,10 0,0 -1,0 -1,0zm145 -20c0,0 0,0 0,1 0,1 0,1 0,1 -13,25 -27,50 -40,75 -13,25 -26,51 -39,76 -8,0 -17,0 -25,0 0,0 0,-1 0,-2 12,-23 24,-47 36,-70 12,-23 25,-47 37,-70 -24,0 -47,0 -71,1 0,-3 0,-6 0,-9 27,0 54,0 82,0 2,0 5,0 8,0 2,-1 5,-1 7,-2 2,0 4,0 5,-1zm-1 144c-1,3 -1,6 -2,8 -29,1 -59,1 -88,1 0,-3 0,-5 0,-8 30,0 60,-1 90,-1zm7 -31c-3,13 -5,26 -7,39 -11,0 -21,0 -32,1 1,-3 2,-5 3,-7 0,0 1,-1 2,-2 8,0 15,-3 20,-8 6,-6 9,-14 12,-23 0,0 1,0 2,0zm-89 -102c-5,1 -9,2 -12,6 -3,3 -5,8 -5,13 0,1 0,2 0,3 0,0 -1,0 -2,0 0,-7 0,-15 0,-22 7,0 13,0 19,0 0,0 0,0 0,0zm-19 -11c2,0 4,1 6,1 3,1 6,1 9,2 3,0 6,0 9,0 -8,1 -16,2 -24,3 0,-2 0,-4 0,-6zm167 3c0,25 0,50 0,75 0,25 0,50 0,74 -8,0 -15,0 -23,0 0,-25 0,-49 0,-74 0,-25 0,-50 0,-75 8,0 15,0 23,0zm-22 134c0,5 0,10 0,15 -5,0 -11,0 -16,0 0,-1 0,-1 0,-2 0,0 1,0 2,0 1,0 1,0 1,0 3,0 6,-1 8,-4 3,-2 4,-6 4,-9 0,0 0,0 1,0zm0 -118c-1,0 -1,0 -1,0 0,-4 -1,-7 -4,-10 -2,-2 -5,-4 -8,-4 0,0 0,0 -1,0 -1,0 -2,0 -2,0 0,0 0,-1 0,-2 5,0 11,0 16,0 0,5 0,11 0,16zm22 118c0,0 0,0 0,0 0,4 2,7 4,9 2,3 5,4 8,4 0,0 1,0 2,0 0,0 1,0 1,0 0,1 0,2 0,3 -5,-1 -10,-1 -15,-1 0,-5 0,-10 0,-15zm0 -118c0,-5 0,-10 0,-16 5,0 10,0 15,0 0,1 0,2 0,3 0,0 -1,0 -1,0 -1,0 -2,0 -2,0 -3,-1 -6,1 -8,3 -2,3 -4,6 -4,10 0,0 0,0 0,0zm110 -18c15,1 28,4 39,10 11,7 19,16 25,28 3,6 5,12 6,19 2,7 3,15 3,23 0,8 -1,15 -3,22 -1,7 -3,13 -6,19 -6,11 -14,20 -25,26 -12,6 -24,9 -39,9 -14,0 -27,-4 -38,-10 -11,-7 -20,-16 -25,-28 -3,-6 -6,-12 -7,-19 -2,-7 -2,-14 -2,-22 0,-8 0,-15 2,-22 1,-7 4,-13 7,-19 5,-12 14,-20 25,-27 11,-6 24,-9 38,-9zm0 148c10,0 18,-3 25,-8 7,-6 13,-14 16,-24 4,-11 6,-23 6,-37 0,-14 -2,-27 -6,-37 -3,-11 -9,-19 -16,-25 -7,-5 -15,-8 -25,-9 -9,0 -18,3 -25,9 -7,5 -12,13 -16,24 -4,10 -6,22 -6,36 0,15 2,27 6,37 4,11 9,19 16,25 7,5 16,9 25,9zm106 -146c20,23 39,45 59,68 20,22 39,45 59,68 1,8 1,17 2,25 -20,-22 -39,-45 -59,-68 -19,-23 -39,-45 -59,-67 0,-9 -1,-17 -2,-26zm1 138c0,5 0,11 0,16 -5,-1 -11,-1 -16,-1 0,-1 0,-1 0,-2 0,0 1,0 2,0 1,0 2,0 2,0 3,0 6,-1 8,-4 2,-2 4,-5 4,-9 0,0 0,0 0,0zm21 1c0,4 1,7 3,9 2,3 5,4 8,4 0,0 1,0 2,1 1,0 2,0 2,0 0,0 0,1 0,2 -6,0 -11,-1 -16,-1 0,-5 0,-10 0,-15 0,0 0,0 1,0zm-22 -139c7,9 14,18 21,27 0,21 0,42 0,63 0,22 0,43 1,64 -7,0 -14,0 -21,0 0,-22 0,-43 0,-64 0,-21 0,-42 0,-63 0,-8 -1,-14 -2,-19 0,-5 -1,-8 -1,-8 1,0 2,0 2,0zm120 7c0,21 0,42 0,63 0,21 0,42 0,64 0,5 0,10 0,14 1,4 1,7 1,10 0,2 1,3 1,3 -1,0 -2,0 -2,0 -7,-9 -14,-18 -21,-28 0,-21 0,-42 0,-63 0,-21 0,-43 0,-64 7,0 14,1 21,1zm15 0c0,1 0,2 0,2 0,0 -1,0 -2,0 -1,0 -2,0 -2,0 -3,0 -5,1 -8,4 -2,2 -3,5 -3,9 -1,0 -1,0 -1,0 0,-5 0,-10 0,-15 5,0 10,0 16,0zm-51 -1c5,0 10,0 15,0 0,5 0,10 0,15 0,0 0,0 0,0 0,-3 -1,-6 -4,-9 -2,-3 -5,-4 -8,-4 0,0 -1,0 -2,0 -1,0 -1,0 -1,0 0,-1 0,-2 0,-2zm130 0c10,27 20,53 30,80 10,27 20,53 30,80 -9,-1 -18,-1 -28,-2 -7,-20 -13,-41 -20,-62 -7,-20 -14,-41 -20,-61 3,-12 5,-23 8,-35zm-40 139c-1,3 -2,6 -1,8 1,2 2,3 3,5 2,1 3,1 5,1 0,0 1,1 2,1 0,0 0,1 0,2 -14,-1 -27,-2 -40,-2 0,-1 0,-2 0,-3 0,0 0,0 1,0 0,0 0,0 0,0 3,1 6,0 9,-2 3,-2 6,-6 8,-10 4,0 8,0 13,0zm40 -139c1,8 1,16 1,23 -8,22 -16,44 -23,66 -8,22 -16,44 -24,65 -4,0 -9,0 -13,0 8,-22 16,-43 25,-64 8,-21 16,-42 24,-63 1,-1 1,-2 2,-5 1,-2 2,-4 3,-7 1,-3 2,-6 2,-9 1,-2 2,-4 2,-6 0,0 1,0 1,0zm23 104c0,3 0,6 0,8 -19,-1 -38,-2 -57,-3 0,-2 0,-5 0,-8 19,1 38,2 57,3zm4 39c10,1 19,1 28,2 2,5 4,9 7,11 4,3 7,4 10,4 0,0 0,0 0,0 1,0 1,0 1,0 0,1 0,2 0,2 -18,-1 -36,-2 -54,-3 0,-1 0,-2 0,-3 0,0 1,0 1,0 3,1 5,0 7,-3 2,-2 2,-5 0,-10zm96 -133c0,26 0,52 0,78 0,26 0,52 0,78 -8,-1 -16,-1 -23,-2 0,-26 0,-52 0,-78 0,-25 0,-51 0,-77 7,0 15,1 23,1zm50 151c1,3 2,6 3,9 -18,-1 -36,-3 -54,-4 0,-3 0,-6 0,-9 17,1 34,3 51,4zm13 -33c-1,7 -3,14 -4,21 -2,7 -4,14 -5,21 -12,-1 -24,-2 -36,-3 3,-2 5,-5 7,-8 7,1 12,0 17,-3 5,-2 9,-6 12,-11 3,-5 5,-10 8,-17 0,0 1,0 1,0zm-86 20c0,5 0,11 0,16 -5,0 -10,-1 -15,-1 0,-1 0,-1 0,-2 0,0 0,0 1,0 1,0 1,0 1,0 4,0 7,-1 9,-3 2,-3 3,-6 4,-10 0,0 0,0 0,0zm0 -123c0,0 0,0 0,0 -1,-4 -2,-7 -4,-10 -2,-3 -5,-4 -9,-5 0,0 0,0 -1,0 -1,0 -1,0 -1,0 0,0 0,-1 0,-2 5,0 10,1 15,1 0,5 0,11 0,16zm22 1c0,-5 0,-11 0,-16 5,0 10,0 15,1 0,0 0,1 0,2 0,0 0,0 -1,0 -1,0 -1,0 -1,0 -3,0 -6,1 -9,3 -2,3 -3,6 -3,10 -1,0 -1,0 -1,0zm120 -9c0,26 0,53 0,79 0,27 0,53 0,80 -8,-1 -16,-2 -23,-2 0,-27 0,-53 0,-80 0,-26 0,-52 0,-79 7,1 15,1 23,2zm50 155c1,3 2,6 3,9 -18,-2 -36,-3 -54,-5 0,-3 0,-6 0,-9 17,1 34,3 51,5zm-7 -76c0,3 0,6 0,9 -15,-1 -29,-2 -44,-3 0,-3 0,-6 0,-9 15,1 29,2 44,3zm9 -76c0,3 0,6 0,9 -18,-1 -35,-2 -53,-4 0,-2 0,-5 0,-8 18,1 35,2 53,3zm11 118c-1,7 -3,14 -4,22 -2,7 -4,14 -5,21 -12,-1 -24,-2 -36,-3 2,-3 5,-6 7,-9 7,1 12,0 17,-2 5,-3 9,-6 12,-12 3,-4 5,-10 7,-17 1,0 2,0 2,0zm-20 -33c0,6 0,13 0,19 -1,0 -1,0 -2,0 0,-1 0,-1 0,-2 0,-5 -1,-9 -4,-13 -3,-3 -6,-5 -10,-5 0,0 0,0 0,-1 5,1 11,1 16,2zm0 -28c0,7 0,13 0,20 -5,-1 -11,-1 -16,-1 0,-1 0,-1 0,-1 4,0 7,-1 10,-4 3,-3 4,-7 4,-12 0,0 0,-1 0,-2 1,0 1,0 2,0zm9 -49c0,8 0,16 0,24 -1,0 -2,0 -2,0 0,-1 0,-2 0,-3 0,-6 -2,-11 -5,-15 -3,-4 -7,-6 -12,-7 0,0 0,0 0,0 6,0 12,1 19,1zm0 -12c0,2 0,4 0,6 -8,-1 -16,-2 -23,-4 2,1 5,1 9,0 2,0 5,0 8,-1 3,0 5,-1 6,-1zm-75 141c0,6 0,11 0,17 -5,-1 -10,-1 -15,-2 0,0 0,-1 0,-2 0,0 0,0 1,0 1,0 1,0 1,0 4,1 6,-1 9,-3 2,-3 3,-6 4,-10 0,0 0,0 0,0zm0 -125c0,0 0,0 0,0 -1,-4 -2,-8 -4,-11 -3,-2 -5,-4 -9,-4 0,0 0,0 -1,0 -1,0 -1,0 -1,0 0,-1 0,-2 0,-3 5,1 10,1 15,1 0,6 0,11 0,17z"/>
  <path class="fil3 str0" d="M1 758c534,-45 1070,-51 1611,0"/>
  <path class="fil3 str1" d="M1 807c544,-44 1081,-46 1611,0"/>
  <g id="_1713927698912">
   <path class="fil4" d="M816 181l134 -56 2 -2c0,-7 21,-20 31,-13 9,23 14,47 14,71 0,99 -81,180 -181,180 -99,0 -180,-81 -180,-180 0,-100 81,-181 180,-181 6,0 11,0 16,1 11,5 4,29 -3,35l-13 145z"/>
   <path class="fil5 str2" d="M816 181l134 -57c8,18 11,37 11,57 0,80 -65,145 -145,145 -80,0 -145,-65 -145,-145 0,-80 65,-145 145,-145 5,0 9,0 13,0l-13 145z"/>
   <circle class="fil6" cx="785" cy="100" r="13"/>
   <circle class="fil6" cx="727" cy="193" r="19"/>
   <circle class="fil6" cx="731" cy="130" r="13"/>
   <circle class="fil6" cx="768" cy="257" r="24"/>
   <circle class="fil6" cx="918" cy="199" r="10"/>
   <circle class="fil6" cx="828" cy="217" r="15"/>
   <circle class="fil6" cx="868" cy="259" r="25"/>
  </g>
 </g>
</svg>
